<?xml version="1.0" encoding="iso-8859-1"?>
<!-- Generator: Adobe Illustrator 19.0.0, SVG Export Plug-In . SVG Version: 6.00 Build 0)  -->
<svg version="1.1" id="Capa_1" xmlns="http://www.w3.org/2000/svg" xmlns:xlink="http://www.w3.org/1999/xlink" x="0px" y="0px"
	 viewBox="0 0 485.059 485.059" style="enable-background:new 0 0 485.059 485.059;" xml:space="preserve">
<path d="M454.917,216.561c-28.682,10.399-55.745,23.842-81.01,40.193c19.63-57.302,28.198-116.891,25.473-177.565l-1.439-32.029
	L374.275,68.79c-30.667,28.03-57.409,59.726-79.836,94.57c-8.269-39.326-21.06-77.591-38.322-114.488L242.53,19.831l-13.586,29.041
	c-17.262,36.897-30.053,75.162-38.323,114.488c-22.427-34.845-49.169-66.54-79.836-94.57L87.119,47.159L85.68,79.188
	c-2.726,60.675,5.842,120.263,25.472,177.565c-25.265-16.351-52.328-29.794-81.01-40.193L0,205.633l10.928,30.142
	c20.153,55.588,51.71,105.112,93.797,147.198c33.785,33.785,72.743,60.995,115.794,80.873l2.992,1.382h38.037l2.992-1.382
	c43.052-19.879,82.011-47.089,115.794-80.873c42.086-42.086,73.645-91.611,93.797-147.199l10.928-30.142L454.917,216.561z
	 M369.646,115.494c-1.726,54.45-13.267,107.743-34.445,158.873c-2.37,5.722-4.908,11.471-7.689,17.458
	c-6.767,5.931-13.367,12.107-19.792,18.532c-1.214,1.214-2.411,2.44-3.608,3.668c1.066-13.736,1.607-27.528,1.607-41.297
	c0-21.3-1.248-42.385-3.716-63.216C320.544,175.216,343.204,143.715,369.646,115.494z M149.858,274.366
	c-21.178-51.129-32.719-104.421-34.445-158.872c26.438,28.218,49.102,59.723,67.643,94.017c-2.468,20.831-3.716,41.916-3.716,63.216
	c0,13.769,0.541,27.56,1.607,41.296c-1.197-1.227-2.393-2.453-3.607-3.667c-6.425-6.425-13.026-12.601-19.792-18.532
	C154.785,285.875,152.196,280.011,149.858,274.366z M125.938,361.76c-30.422-30.423-54.896-65.032-73.04-103.229
	c38.194,18.143,72.809,42.619,103.229,73.04c30.334,30.335,54.823,64.962,73,103.179C190.87,416.534,156.171,391.993,125.938,361.76
	z M216.164,355.286c-4.524-27.141-6.823-54.895-6.823-82.557c0-62.088,11.149-122.243,33.189-179.295
	c22.04,57.053,33.188,117.208,33.188,179.295c0,27.678-2.301,55.445-6.829,82.597c-9.589,12.91-18.387,26.363-26.348,40.322
	C234.579,381.676,225.774,368.214,216.164,355.286z M359.122,361.76c-28.893,28.893-61.865,52.587-98.124,70.53
	c-0.608-1.379-1.222-2.749-1.845-4.119c17.851-35.653,41.301-68.122,69.779-96.601c30.421-30.42,65.035-54.897,103.229-73.04
	C414.018,296.729,389.544,331.338,359.122,361.76z"/>
<g>
</g>
<g>
</g>
<g>
</g>
<g>
</g>
<g>
</g>
<g>
</g>
<g>
</g>
<g>
</g>
<g>
</g>
<g>
</g>
<g>
</g>
<g>
</g>
<g>
</g>
<g>
</g>
<g>
</g>
</svg>
