<svg height="495pt" viewBox="0 -21 495.5543 495" width="495pt" xmlns="http://www.w3.org/2000/svg"><path d="m395.339844 100.230469c16.855468 0 30.519531-13.664063 30.523437-30.519531 0-16.855469-13.664062-30.519532-30.519531-30.519532s-30.519531 13.664063-30.519531 30.519532c.019531 16.847656 13.671875 30.5 30.515625 30.519531zm0-47.039063c9.125 0 16.519531 7.394532 16.523437 16.519532 0 9.121093-7.398437 16.519531-16.519531 16.519531-9.125 0-16.519531-7.394531-16.519531-16.519531.007812-9.117188 7.398437-16.507813 16.515625-16.519532zm0 0"/><path d="m418.089844 95.296875c-2.257813.085937-4.34375 1.222656-5.640625 3.070313-1.269531 1.765624-2.800781 3.332031-4.535157 4.644531-4.523437 3.363281-10.203124 4.777343-15.777343 3.929687-5.589844-.90625-10.589844-4-13.898438-8.601562-1.300781-1.84375-3.386719-2.96875-5.640625-3.042969-15.523437 0-27.824218 13.074219-27.824218 28.601563v29.898437c-.054688 1.769531.636718 3.480469 1.902343 4.71875 1.269531 1.234375 2.996094 1.882813 4.765625 1.78125h87.800782c1.753906.097656 3.464843-.554687 4.710937-1.792969 1.246094-1.242187 1.90625-2.949218 1.820313-4.707031v-29.898437c0-15.527344-12.160157-28.601563-27.683594-28.601563zm13.683594 51h-73v-22.398437c-.0625-6.628907 4.515624-12.398438 10.984374-13.84375 12.164063 13.03125 32.15625 14.902343 46.527344 4.347656 1.671875-1.296875 3.21875-2.753906 4.613282-4.347656 6.445312 1.457031 10.984374 7.234374 10.875 13.84375zm0 0"/><path d="m395.828125.277344c-37.386719-.019532-71.636719 20.886718-88.714844 54.144531-17.074219 33.257813-14.101562 73.273437 7.703125 103.644531l-67.042968 21.140625-67.042969-21.140625c25.855469-36.105468 24.707031-84.960937-2.8125-119.8125-27.519531-34.855468-74.777344-47.296875-115.894531-30.523437-41.117188 16.777343-66.175782 58.730469-61.460938 102.886719 4.71875 44.15625 38.078125 79.871093 81.8125 87.582031l-21.308594 21.300781c-25.226562 25.226562-23.941406 67.597656 2.855469 94.445312 29.207031 29.261719 60.691406 60.800782 86.933594 87.039063-2.414063 9.40625.277343 19.390625 7.097656 26.308594l.34375.34375c5.15625 5.125 12.144531 7.980469 19.414063 7.933593 2.339843-.003906 4.671874-.285156 6.945312-.847656l2.636719 2.628906c4.179687 4.179688 9.480469 7.054688 15.261719 8.277344 5 4.359375 11.421874 6.742188 18.058593 6.691406.335938 0 .675781-.007812 1.015625-.019531 7.683594-.292969 14.964844-3.5 20.367188-8.96875l5.777344-5.777343 5.78125 5.777343c5.402343 5.46875 12.683593 8.675781 20.363281 8.964844.339843.011719.675781.019531 1.015625.019531 6.632812.054688 13.054687-2.324218 18.050781-6.679687 5.78125-1.242188 11.078125-4.121094 15.269531-8.289063l2.652344-2.644531c9.410156 2.414063 19.398438-.265625 26.339844-7.066406l.351562-.351563c6.796875-6.929687 9.480469-16.898437 7.082032-26.300781 26.4375-26.429687 57.402343-57.441406 86.945312-87.042969 26.796875-26.851562 28.082031-69.222656 2.855469-94.445312l-21.308594-21.296875c50.917969-8.992188 86.515625-55.402344 82-106.910157-4.511719-51.503906-47.640625-91.015624-99.34375-91.011718zm-381.824219 99.714844c-.003906-47.339844 38.375-85.71875 85.714844-85.71875s85.71875 38.378906 85.71875 85.71875c0 47.339843-38.378906 85.714843-85.71875 85.714843-47.316406-.050781-85.664062-38.398437-85.714844-85.714843zm218.089844 333.441406c-.054688.054687-.117188.105468-.175781.160156 1.652343-2.550781 2.859375-5.367188 3.570312-8.328125l2.386719 2.386719zm95.609375-16.046875-.355469.351562c-5.488281 5.488281-14.898437 5.011719-20.96875-1.0625l-101.207031-101.207031-9.898437 9.898438 88.128906 88.132812c6.066406 6.070312 6.539062 15.472656 1.125 20.890625l-.105469.101563c-2.660156 2.621093-6.296875 4.003906-10.023437 3.816406-4.136719-.175782-8.050782-1.917969-10.945313-4.878906l-88.125-88.121094-9.898437 9.898437 51.945312 51.949219c2.957031 2.894531 4.699219 6.808594 4.875 10.945312.1875 3.730469-1.195312 7.367188-3.820312 10.027344l-.328126.328125c-5.472656 5.472657-14.863281 5.011719-20.933593-1.03125-28.363281-28.226562-78.535157-78.484375-123.335938-123.371093-21.351562-21.390626-22.640625-54.882813-2.867187-74.65625l29.699218-29.699219c26.503907-.238281 51.8125-11.050781 70.308594-30.03125l53.523438 16.878906-29.652344 9.351563c-3.144531.992187-5.167969 4.042968-4.863281 7.324218l.753906 8.082032c.386719 10.257812 4.996094 19.902343 12.738281 26.644531 7.9375 6.855469 18.367188 10.101562 28.792969 8.96875l4.199219-.410157 96.84375 96.976563c6.066406 6.074219 6.535156 15.476563 1.050781 20.960937-.019531.019532-.035156.039063-.054687.058594-2.65625 2.585938-6.269532 3.949219-9.972657 3.761719-3.917969-.164063-7.644531-1.742187-10.488281-4.441406l-31.609375-31.597657c-24.089844-24.082031-44.898437-44.875-46.898437-46.894531l-9.933594 9.863281c2.019531 2.035157 22.832031 22.84375 46.933594 46.933594l31.160156 31.144532-.007813.007812c.199219.199219.398438.398438.605469.59375 8.40625 8.402344 16.195312 16.1875 22.546875 22.546875 6.074219 6.078125 6.546875 15.476563 1.0625 20.964844zm94.011719-113.332031c-28.390625 28.445312-58.089844 58.195312-83.820313 83.921874-.433593-.492187-.878906-.980468-1.351562-1.449218-1.589844-1.59375-3.269531-3.269532-5.03125-5.03125 4.828125-1.160156 9.238281-3.632813 12.742187-7.148438.027344-.027344.054688-.050781.082032-.078125 10.859374-10.949219 10.367187-29.171875-1.125-40.675781l-85.542969-85.667969 5.644531-5.652343c2.085938-2.089844 2.636719-5.269532 1.375-7.941407-1.265625-2.671875-4.070312-4.261719-7.011719-3.972656l-26.777343 2.625c-6.59375.75-13.203126-1.28125-18.242188-5.597656-4.875-4.273438-7.75-10.378907-7.945312-16.859375 0-.117188-.011719-.234375-.023438-.351563l-.242188-2.625 120.128907-37.882812c18.492187 18.980469 43.800781 29.789062 70.300781 30.03125l29.699219 29.699219c19.777343 19.773437 18.492187 53.265624-2.859375 74.65625zm-25.886719-118.347657c-47.339844 0-85.714844-38.375-85.714844-85.714843 0-47.339844 38.375-85.714844 85.714844-85.714844s85.714844 38.375 85.714844 85.714844c-.050781 47.316406-38.398438 85.664062-85.714844 85.714843zm0 0"/><path d="m99.234375 100.230469c16.855469 0 30.519531-13.664063 30.519531-30.519531 0-16.855469-13.664062-30.519532-30.519531-30.519532s-30.519531 13.664063-30.519531 30.519532c.019531 16.847656 13.671875 30.5 30.519531 30.519531zm0-47.039063c9.121094 0 16.519531 7.398438 16.519531 16.519532 0 9.125-7.398437 16.519531-16.519531 16.519531-9.125 0-16.519531-7.394531-16.519531-16.519531.007812-9.117188 7.398437-16.507813 16.519531-16.519532zm0 0"/><path d="m149.773438 153.796875v-29.898437c0-15.527344-12.269532-28.601563-27.792969-28.601563-2.257813.085937-4.34375 1.222656-5.640625 3.070313-1.269532 1.765624-2.800782 3.332031-4.535156 4.644531-9.496094 6.875-22.765626 4.773437-29.671876-4.703125-1.304687-1.832032-3.394531-2.949219-5.644531-3.011719-15.527343 0-27.714843 13.074219-27.714843 28.601563v29.898437c-.078126 1.757813.585937 3.46875 1.835937 4.707031 1.25 1.238282 2.964844 1.890625 4.722656 1.792969h87.800781c1.765626.101563 3.492188-.546875 4.753907-1.785156 1.261719-1.234375 1.949219-2.945313 1.886719-4.714844zm-14-7.5h-73v-22.398437c-.085938-6.617188 4.472656-12.390626 10.929687-13.84375 12.152344 13.03125 32.140625 14.902343 46.5 4.347656 1.6875-1.296875 3.246094-2.753906 4.652344-4.347656 6.457031 1.453124 11.011719 7.226562 10.917969 13.84375zm0 0"/></svg>