<?xml version="1.0" encoding="iso-8859-1"?>
<!-- Generator: Adobe Illustrator 19.0.0, SVG Export Plug-In . SVG Version: 6.00 Build 0)  -->
<svg version="1.1" id="Layer_1" xmlns="http://www.w3.org/2000/svg" xmlns:xlink="http://www.w3.org/1999/xlink" x="0px" y="0px"
	 viewBox="0 0 512.001 512.001" style="enable-background:new 0 0 512.001 512.001;" xml:space="preserve">
<g>
	<g>
		<path d="M460.961,26.017l-51.039,57.774v66.392H375.36V83.793l-51.04-57.774l-51.039,57.774v66.392h-34.562V83.793l-51.039-57.775
			l-51.04,57.774v66.392h-34.562V83.793L51.039,26.017L0,83.793v402.191h102.078v-60.839h34.562v60.839h102.079v-60.839h34.562
			v60.839h102.079v-60.839h34.562v60.839h102.078V83.793L460.961,26.017z M136.64,352.979h-34.562V222.35h34.562V352.979z
			 M273.281,352.979h-34.562V222.35h34.562V352.979z M409.922,352.979H375.36V222.35h34.562V352.979z"/>
	</g>
</g>
<g>
</g>
<g>
</g>
<g>
</g>
<g>
</g>
<g>
</g>
<g>
</g>
<g>
</g>
<g>
</g>
<g>
</g>
<g>
</g>
<g>
</g>
<g>
</g>
<g>
</g>
<g>
</g>
<g>
</g>
</svg>
