<svg id="Layer_1" enable-background="new 0 0 495.921 495.921" height="512" viewBox="0 0 495.921 495.921" width="512" xmlns="http://www.w3.org/2000/svg"><path d="m478.96 479.921c0 8.84-7.16 16-16 16h-430c-8.84 0-16-7.16-16-16s7.16-16 16-16h30.76c9.344-53.294 44.644-87.059 89.92-95.2 23.066-67.184 116.845-71.582 146.39-6.97 24.289-2.019 46.277 13.67 52.93 35.84 45.62-5.682 82.283 25.503 89.1 66.33h20.9c8.84 0 16 7.16 16 16zm-225.327-75.619c0-8.837-7.164-16-16-16-22.986 0-42.637 16.398-46.727 38.991-1.574 8.695 4.199 17.02 12.895 18.594 8.686 1.575 17.019-4.193 18.594-12.895 1.331-7.354 7.74-12.69 15.238-12.69 8.836 0 16-7.163 16-16zm175.877-351.761-9.89 23.99c-9.738 23.571-33.498 36.739-57.34 34.33-1.384 3.356-48.885 118.516-69.71 169.01-4.339 10.52 3.403 22.109 14.79 22.109 6.28 0 12.25-3.729 14.79-9.909l9.916-24.043c2.079-5.04 7.851-7.44 12.89-5.36l13.284 5.483c8.162 3.372 12.06 12.736 8.69 20.89-14.378 34.869-20.037 48.673-22.736 55.098-1.773 4.221-6.201 6.604-10.727 5.917-3.04-.462-6.109-.705-9.184-.727-3.575-.026-6.835-2.062-8.512-5.219-24.163-45.51-77.659-64.259-123.66-47.42-7.845 2.872-15.451-4.736-12.646-12.606 4.012-11.258 11.068-27.596 25.235-61.952 3.37-8.17 12.73-12.06 20.9-8.689l51.06 21.06 56.03-135.84c-18.39-14.888-26.269-40.973-16.46-64.78l9.9-23.98c3.356-8.17 12.732-12.053 20.89-8.69 19.337 7.975.966.398 73.8 30.44 8.196 3.385 12.049 12.76 8.69 20.888zm-35.68 2.59c-47.071-19.422-41.23-17.014-44.22-18.24l-3.8 9.2c-8.12 19.713 11.738 39.326 31.3 31.2 10.606-4.422 12.759-12.554 16.72-22.16z"/></svg>