<?xml version="1.0" encoding="utf-8"?>
<!-- Generator: Adobe Illustrator 24.1.1, SVG Export Plug-In . SVG Version: 6.00 Build 0)  -->
<svg version="1.1" id="Layer_1" xmlns="http://www.w3.org/2000/svg" xmlns:xlink="http://www.w3.org/1999/xlink" x="0px" y="0px"
	 viewBox="0 0 512 512" style="enable-background:new 0 0 512 512;" xml:space="preserve">
<path d="M495.6,480H393.6v-66.5c57,22.2,118.4-20.1,118.4-81c0-33.9-19.4-63.4-48.3-77.8c6.8-52-33.7-98.3-86.2-98.3
	c-52.4,0-93,46.2-86.2,98.3c-4.9,2.5-9.6,5.4-14,8.7c30.1,41.5,29.7,97.3,0,138.3c24.9,19,56.9,22.5,84.1,11.9V480H272v-43.8
	c-7.6-4.3-12.1-7.8-16.9-11.4c-4.8,3.8-9.8,7.2-15.1,10.2V480h-89.6v-66.5c57,22.2,118.4-20.1,118.4-81c0-33.9-19.4-63.4-48.3-77.8
	c6.8-52-33.7-98.3-86.2-98.3c-52.4,0-93,46.2-86.2,98.3C19.3,269.1,0,298.6,0,332.5c0,60.9,61.5,103.2,118.4,81V480H16.3
	c-8.8,0-16,7.2-16,16s7.2,16,16,16h479.3c8.8,0,16-7.2,16-16S504.5,480,495.6,480L495.6,480z"/>
</svg>
